<mxfile host="Electron" agent="Mozilla/5.0 (Macintosh; Intel Mac OS X 10_15_7) AppleWebKit/537.36 (KHTML, like Gecko) draw.io/24.7.17 Chrome/128.0.6613.36 Electron/32.0.1 Safari/537.36" version="24.7.17">
  <diagram name="Page-1" id="L1znFtw4LHjlzSLDoQAo">
    <mxGraphModel dx="828" dy="773" grid="1" gridSize="10" guides="1" tooltips="1" connect="1" arrows="1" fold="1" page="1" pageScale="1" pageWidth="827" pageHeight="1169" math="0" shadow="0">
      <root>
        <mxCell id="0" />
        <mxCell id="1" parent="0" />
        <mxCell id="gsZjfwyLaX7j5rnLrjaP-1" value="Minuteur de douche" style="ellipse;whiteSpace=wrap;html=1;aspect=fixed;" parent="1" vertex="1">
          <mxGeometry x="190" y="170" width="290" height="290" as="geometry" />
        </mxCell>
        <mxCell id="gsZjfwyLaX7j5rnLrjaP-2" value="Ecran OLED" style="rounded=0;whiteSpace=wrap;html=1;" parent="1" vertex="1">
          <mxGeometry x="585" y="90" width="120" height="60" as="geometry" />
        </mxCell>
        <mxCell id="gsZjfwyLaX7j5rnLrjaP-3" value="BP_Min" style="rounded=0;whiteSpace=wrap;html=1;" parent="1" vertex="1">
          <mxGeometry x="60" y="70" width="120" height="60" as="geometry" />
        </mxCell>
        <mxCell id="gsZjfwyLaX7j5rnLrjaP-4" value="MST" style="text;html=1;align=center;verticalAlign=middle;resizable=0;points=[];autosize=1;strokeColor=none;fillColor=none;" parent="1" vertex="1">
          <mxGeometry x="70" y="281" width="50" height="30" as="geometry" />
        </mxCell>
        <mxCell id="gsZjfwyLaX7j5rnLrjaP-5" value="LED" style="rounded=0;whiteSpace=wrap;html=1;" parent="1" vertex="1">
          <mxGeometry x="600" y="248" width="120" height="60" as="geometry" />
        </mxCell>
        <mxCell id="gsZjfwyLaX7j5rnLrjaP-7" value="" style="endArrow=classic;html=1;rounded=0;dashed=1;dashPattern=8 8;" parent="1" target="gsZjfwyLaX7j5rnLrjaP-1" edge="1">
          <mxGeometry width="50" height="50" relative="1" as="geometry">
            <mxPoint x="180" y="130" as="sourcePoint" />
            <mxPoint x="230" y="80" as="targetPoint" />
          </mxGeometry>
        </mxCell>
        <mxCell id="gsZjfwyLaX7j5rnLrjaP-8" value="LancementMinutage" style="text;html=1;align=center;verticalAlign=middle;resizable=0;points=[];autosize=1;strokeColor=none;fillColor=none;" parent="1" vertex="1">
          <mxGeometry x="186" y="128" width="130" height="30" as="geometry" />
        </mxCell>
        <mxCell id="gsZjfwyLaX7j5rnLrjaP-9" value="" style="endArrow=classic;html=1;rounded=0;" parent="1" source="gsZjfwyLaX7j5rnLrjaP-1" edge="1">
          <mxGeometry width="50" height="50" relative="1" as="geometry">
            <mxPoint x="550" y="170" as="sourcePoint" />
            <mxPoint x="580" y="140" as="targetPoint" />
          </mxGeometry>
        </mxCell>
        <mxCell id="gsZjfwyLaX7j5rnLrjaP-11" value="" style="endArrow=classic;html=1;rounded=0;dashed=1;dashPattern=8 8;entryX=0;entryY=0.5;entryDx=0;entryDy=0;" parent="1" target="gsZjfwyLaX7j5rnLrjaP-1" edge="1">
          <mxGeometry width="50" height="50" relative="1" as="geometry">
            <mxPoint x="74" y="315" as="sourcePoint" />
            <mxPoint x="252" y="214" as="targetPoint" />
          </mxGeometry>
        </mxCell>
        <mxCell id="gsZjfwyLaX7j5rnLrjaP-12" value="" style="endArrow=classic;html=1;rounded=0;entryX=-0.011;entryY=0.831;entryDx=0;entryDy=0;entryPerimeter=0;" parent="1" edge="1">
          <mxGeometry width="50" height="50" relative="1" as="geometry">
            <mxPoint x="480" y="281" as="sourcePoint" />
            <mxPoint x="598.68" y="280.86" as="targetPoint" />
          </mxGeometry>
        </mxCell>
        <mxCell id="gsZjfwyLaX7j5rnLrjaP-14" value="" style="endArrow=classic;html=1;rounded=0;entryX=-0.008;entryY=0.367;entryDx=0;entryDy=0;entryPerimeter=0;" parent="1" edge="1">
          <mxGeometry width="50" height="50" relative="1" as="geometry">
            <mxPoint x="481" y="360" as="sourcePoint" />
            <mxPoint x="600" y="360" as="targetPoint" />
          </mxGeometry>
        </mxCell>
        <mxCell id="gsZjfwyLaX7j5rnLrjaP-16" value="&lt;span style=&quot;text-align: left; caret-color: rgb(0, 0, 0); background-color: rgb(236, 236, 236);&quot;&gt;Cde_Buzzer&lt;/span&gt;" style="text;html=1;align=center;verticalAlign=middle;resizable=0;points=[];autosize=1;strokeColor=none;fillColor=none;" parent="1" vertex="1">
          <mxGeometry x="485" y="330" width="90" height="30" as="geometry" />
        </mxCell>
        <mxCell id="gsZjfwyLaX7j5rnLrjaP-17" value="" style="endArrow=classic;startArrow=classic;html=1;rounded=0;" parent="1" edge="1">
          <mxGeometry width="50" height="50" relative="1" as="geometry">
            <mxPoint x="450" y="490" as="sourcePoint" />
            <mxPoint x="410" y="440" as="targetPoint" />
          </mxGeometry>
        </mxCell>
        <mxCell id="gsZjfwyLaX7j5rnLrjaP-18" value="Data_Bluetooth" style="text;html=1;align=center;verticalAlign=middle;resizable=0;points=[];autosize=1;strokeColor=none;fillColor=none;" parent="1" vertex="1">
          <mxGeometry x="420" y="430" width="110" height="30" as="geometry" />
        </mxCell>
        <mxCell id="X8RB0x9H4p4zZcdAnPMw-1" value="Terminal Bluetooth" style="rounded=0;whiteSpace=wrap;html=1;" vertex="1" parent="1">
          <mxGeometry x="430" y="490" width="120" height="60" as="geometry" />
        </mxCell>
        <mxCell id="X8RB0x9H4p4zZcdAnPMw-2" value="&lt;span style=&quot;color: rgb(0, 0, 0); font-family: Helvetica; font-size: 12px; font-style: normal; font-variant-ligatures: normal; font-variant-caps: normal; font-weight: 400; letter-spacing: normal; orphans: 2; text-align: center; text-indent: 0px; text-transform: none; widows: 2; word-spacing: 0px; -webkit-text-stroke-width: 0px; white-space: nowrap; background-color: rgb(251, 251, 251); text-decoration-thickness: initial; text-decoration-style: initial; text-decoration-color: initial; display: inline !important; float: none;&quot;&gt;Cde_Ecran_OLED&lt;/span&gt;" style="text;whiteSpace=wrap;html=1;" vertex="1" parent="1">
          <mxGeometry x="445" y="190" width="170" height="40" as="geometry" />
        </mxCell>
        <mxCell id="X8RB0x9H4p4zZcdAnPMw-3" value="Buzzer" style="rounded=0;whiteSpace=wrap;html=1;" vertex="1" parent="1">
          <mxGeometry x="600" y="330" width="120" height="60" as="geometry" />
        </mxCell>
        <mxCell id="gsZjfwyLaX7j5rnLrjaP-13" value="&lt;span style=&quot;text-align: left; caret-color: rgb(0, 0, 0); background-color: rgb(236, 236, 236);&quot;&gt;Cde_LED&lt;/span&gt;" style="text;html=1;align=center;verticalAlign=middle;resizable=0;points=[];autosize=1;strokeColor=none;fillColor=none;" parent="1" vertex="1">
          <mxGeometry x="490" y="251" width="80" height="30" as="geometry" />
        </mxCell>
      </root>
    </mxGraphModel>
  </diagram>
</mxfile>
